<svg width="39" height="40" viewBox="0 0 39 40" fill="none" xmlns="http://www.w3.org/2000/svg">
<path d="M30.5429 4.28009L30.4029 11.8601C30.3829 12.9001 31.0429 14.2801 31.8829 14.9001L36.8429 18.6601C40.0229 21.0601 39.5029 24.0001 35.7029 25.2001L29.2429 27.2201C28.1629 27.5601 27.0229 28.7401 26.7429 29.8401L25.2029 35.7201C23.9829 40.3601 20.9429 40.8201 18.4229 36.7401L14.9029 31.0401C14.2629 30.0001 12.7429 29.2201 11.5429 29.2801L4.86294 29.6201C0.082943 29.8601 -1.27706 27.1001 1.84294 23.4601L5.80294 18.8601C6.54294 18.0001 6.88294 16.4001 6.54294 15.3201L4.50294 8.84009C3.32294 5.04009 5.44294 2.94009 9.22294 4.18009L15.1229 6.12009C16.1229 6.44009 17.6229 6.22009 18.4629 5.60009L24.6229 1.16009C27.9629 -1.21991 30.6229 0.180088 30.5429 4.28009Z" fill="#2D9DCF"/>
</svg>
