<svg width="43" height="38" viewBox="0 0 43 38" fill="none" xmlns="http://www.w3.org/2000/svg">
<path d="M42.6024 3.66281C41.9424 2.06281 40.3824 0.922812 38.4624 0.922812H34.3024L33.1824 6.10281C33.0224 6.80281 32.4024 7.28281 31.7224 7.28281C31.6224 7.28281 31.5024 7.28281 31.4024 7.24281C30.6024 7.06281 30.0824 6.26281 30.2424 5.46281L31.2224 0.902812H21.0224L19.7624 6.10281C19.6024 6.78281 18.9824 7.24281 18.3024 7.24281C18.1824 7.24281 18.0624 7.22281 17.9424 7.20281C17.1424 7.00281 16.6424 6.20281 16.8424 5.38281L17.9224 0.882812H13.8624C11.9024 0.882812 10.1624 2.16281 9.5824 4.04281L1.1624 31.1428C0.2824 34.0428 2.4224 37.0028 5.4424 37.0028H31.7224C33.8024 37.0028 35.6024 35.6028 36.0824 33.5828L42.8224 6.52281C42.9424 6.02281 42.9824 5.52281 42.9424 5.04281C42.9024 4.56281 42.8024 4.08281 42.6024 3.66281ZM28.3624 26.5028H12.3624C11.5424 26.5028 10.8624 25.8228 10.8624 25.0028C10.8624 24.1828 11.5424 23.5028 12.3624 23.5028H28.3624C29.1824 23.5028 29.8624 24.1828 29.8624 25.0028C29.8624 25.8228 29.1824 26.5028 28.3624 26.5028ZM30.3624 18.5028H14.3624C13.5424 18.5028 12.8624 17.8228 12.8624 17.0028C12.8624 16.1828 13.5424 15.5028 14.3624 15.5028H30.3624C31.1824 15.5028 31.8624 16.1828 31.8624 17.0028C31.8624 17.8228 31.1824 18.5028 30.3624 18.5028Z" fill="#2D9DCF"/>
</svg>
