<svg width="41" height="40" viewBox="0 0 41 40" fill="none" xmlns="http://www.w3.org/2000/svg">
<path d="M29.3429 0H12.5829C5.30289 0 0.962891 4.34 0.962891 11.62V28.36C0.962891 35.66 5.30289 40 12.5829 40H29.3229C36.6029 40 40.9429 35.66 40.9429 28.38V11.62C40.9629 4.34 36.6229 0 29.3429 0ZM16.6629 28.9C16.6629 31.16 14.8229 33 12.5629 33C10.3029 33 8.46289 31.16 8.46289 28.9C8.46289 27.16 9.54289 25.7 11.0629 25.1V16.52C9.38289 15.9 8.16289 14.3 8.16289 12.4C8.16289 9.98 10.1429 8 12.5629 8C14.9829 8 16.9629 9.98 16.9629 12.4C16.9629 14.3 15.7429 15.9 14.0629 16.52V25.1C15.5829 25.7 16.6629 27.18 16.6629 28.9ZM30.4629 33C28.2029 33 26.3629 31.16 26.3629 28.9C26.3629 27.16 27.4429 25.7 28.9629 25.1V13.5C28.9629 13.22 28.7429 13 28.4629 13H26.2029L26.6229 13.34C27.2629 13.88 27.3429 14.82 26.8229 15.46C26.5229 15.82 26.0829 16 25.6629 16C25.3229 16 24.9829 15.88 24.7029 15.66L21.1029 12.66C20.7629 12.36 20.5629 11.94 20.5629 11.5C20.5629 11.06 20.7629 10.64 21.1029 10.34L24.7029 7.34C25.3429 6.82 26.2829 6.9 26.8229 7.54C27.3629 8.18 27.2629 9.12 26.6229 9.66L26.2029 10H28.4629C30.3829 10 31.9629 11.58 31.9629 13.5V25.1C33.4829 25.7 34.5629 27.18 34.5629 28.9C34.5629 31.16 32.7229 33 30.4629 33Z" fill="#2D9DCF"/>
</svg>
