<svg width="37" height="40" viewBox="0 0 37 40" fill="none" xmlns="http://www.w3.org/2000/svg">
<path d="M30.9629 0H6.96289C3.64289 0 0.962891 2.66 0.962891 5.94V27.76C0.962891 31.04 3.64289 33.7 6.96289 33.7H8.48289C10.0829 33.7 11.6029 34.32 12.7229 35.44L16.1429 38.82C17.7029 40.36 20.2429 40.36 21.8029 38.82L25.2229 35.44C26.3429 34.32 27.8829 33.7 29.4629 33.7H30.9629C34.2829 33.7 36.9629 31.04 36.9629 27.76V5.94C36.9629 2.66 34.2829 0 30.9629 0ZM19.5229 25.92C19.2229 26.02 18.7229 26.02 18.4029 25.92C15.8029 25.02 9.96289 21.32 9.96289 15.02C9.98289 12.24 12.2029 10 14.9629 10C16.6029 10 18.0429 10.78 18.9629 12C19.8829 10.78 21.3229 10 22.9629 10C25.7229 10 27.9629 12.24 27.9629 15.02C27.9429 21.32 22.1229 25.02 19.5229 25.92Z" fill="#2D9DCF"/>
</svg>
