<svg width="19" height="12" viewBox="0 0 19 12" fill="none" xmlns="http://www.w3.org/2000/svg">
<path d="M1.18799 5.50129C0.780419 5.50129 0.450019 5.83169 0.450019 6.23926C0.450018 6.64683 0.780419 6.97723 1.18799 6.97723L1.18799 5.50129ZM18.4371 6.76108C18.7253 6.47289 18.7253 6.00563 18.4371 5.71744L13.7407 1.02102C13.4525 0.73283 12.9853 0.73283 12.6971 1.02102C12.4089 1.30922 12.4089 1.77648 12.6971 2.06467L16.8717 6.23926L12.6971 10.4138C12.4089 10.702 12.4089 11.1693 12.6971 11.4575C12.9853 11.7457 13.4525 11.7457 13.7407 11.4575L18.4371 6.76108ZM1.18799 6.97723L17.9153 6.97723L17.9153 5.50129L1.18799 5.50129L1.18799 6.97723Z" fill="#2D9DCF"/>
</svg>
